<svg width="61" height="61" viewBox="0 0 61 61" fill="none" xmlns="http://www.w3.org/2000/svg">
<rect x="0.159912" y="0.189941" width="60" height="60" rx="30" fill="#F3F6FC"/>
<g clip-path="url(#clip0_1_129)">
<path fill-rule="evenodd" clip-rule="evenodd" d="M21.1599 25.1899C21.1599 23.3043 21.1599 22.3615 21.7457 21.7757C22.3315 21.1899 23.2743 21.1899 25.1599 21.1899C27.0455 21.1899 27.9883 21.1899 28.5741 21.7757C29.1599 22.3615 29.1599 23.3043 29.1599 25.1899V26.1899C29.1599 28.0756 29.1599 29.0184 28.5741 29.6042C27.9883 30.1899 27.0455 30.1899 25.1599 30.1899C23.2743 30.1899 22.3315 30.1899 21.7457 29.6042C21.1599 29.0184 21.1599 28.0756 21.1599 26.1899V25.1899ZM23.1599 25.1899C23.1599 24.1906 23.1642 23.6423 23.2153 23.2619L23.2173 23.2473L23.2319 23.2453C23.6123 23.1942 24.1606 23.1899 25.1599 23.1899C26.1593 23.1899 26.7076 23.1942 27.088 23.2453L27.1025 23.2473L27.1045 23.2619C27.1557 23.6423 27.1599 24.1906 27.1599 25.1899V26.1899C27.1599 27.1893 27.1557 27.7376 27.1045 28.118L27.1025 28.1326L27.088 28.1346C26.7076 28.1857 26.1593 28.1899 25.1599 28.1899C24.1606 28.1899 23.6123 28.1857 23.2319 28.1346L23.2173 28.1326L23.2153 28.118C23.1642 27.7376 23.1599 27.1893 23.1599 26.1899V25.1899Z" fill="#B9BED0"/>
<path fill-rule="evenodd" clip-rule="evenodd" d="M31.1599 35.1899C31.1599 37.0755 31.1599 38.0183 31.7457 38.6041C32.3315 39.1899 33.2743 39.1899 35.1599 39.1899C37.0455 39.1899 37.9883 39.1899 38.5741 38.6041C39.1599 38.0183 39.1599 37.0755 39.1599 35.1899V34.1899C39.1599 32.3043 39.1599 31.3615 38.5741 30.7757C37.9883 30.1899 37.0455 30.1899 35.1599 30.1899C33.2743 30.1899 32.3315 30.1899 31.7457 30.7757C31.1599 31.3615 31.1599 32.3043 31.1599 34.1899V35.1899ZM33.2153 37.1179L33.2173 37.1325L33.2319 37.1345C33.6122 37.1857 34.1606 37.1899 35.1599 37.1899C36.1592 37.1899 36.7076 37.1857 37.0879 37.1345L37.1025 37.1325L37.1045 37.1179C37.1557 36.7376 37.1599 36.1892 37.1599 35.1899V34.1899C37.1599 33.1906 37.1557 32.6422 37.1045 32.2619L37.1025 32.2473L37.0879 32.2453C36.7076 32.1941 36.1592 32.1899 35.1599 32.1899C34.1606 32.1899 33.6122 32.1941 33.2319 32.2453L33.2173 32.2473L33.2153 32.2619C33.1641 32.6422 33.1599 33.1906 33.1599 34.1899V35.1899C33.1599 36.1892 33.1641 36.7376 33.2153 37.1179Z" fill="#B9BED0"/>
<path fill-rule="evenodd" clip-rule="evenodd" d="M22.3945 32.3421C21.9045 32.5451 21.5151 32.9345 21.3122 33.4245C21.1599 33.7921 21.1599 34.258 21.1599 35.1899C21.1599 36.1218 21.1599 36.5877 21.3122 36.9553C21.5151 37.4453 21.9045 37.8347 22.3945 38.0377C22.7621 38.1899 23.228 38.1899 24.1599 38.1899H26.1599C27.0918 38.1899 27.5577 38.1899 27.9253 38.0377C28.4153 37.8347 28.8047 37.4453 29.0077 36.9553C29.1599 36.5877 29.1599 36.1218 29.1599 35.1899C29.1599 34.258 29.1599 33.7921 29.0077 33.4245C28.8047 32.9345 28.4153 32.5451 27.9253 32.3421C27.5577 32.1899 27.0918 32.1899 26.1599 32.1899H24.1599C23.228 32.1899 22.7621 32.1899 22.3945 32.3421ZM27.1437 34.2062L27.1181 34.2043C26.923 34.191 26.6532 34.1899 26.1599 34.1899H24.1599C23.6666 34.1899 23.3968 34.191 23.2017 34.2043L23.1762 34.2062L23.1743 34.2317C23.161 34.4268 23.1599 34.6966 23.1599 35.1899C23.1599 35.6832 23.161 35.953 23.1743 36.1481L23.1762 36.1736L23.2017 36.1755C23.3968 36.1888 23.6666 36.1899 24.1599 36.1899H26.1599C26.6532 36.1899 26.923 36.1888 27.1181 36.1755L27.1436 36.1736L27.1455 36.1481C27.1588 35.953 27.1599 35.6832 27.1599 35.1899C27.1599 34.6966 27.1588 34.4268 27.1455 34.2317L27.1437 34.2062Z" fill="#B9BED0"/>
<path fill-rule="evenodd" clip-rule="evenodd" d="M39.1599 25.1899C39.1599 26.1218 39.1599 26.5878 39.0077 26.9553C38.8047 27.4454 38.4153 27.8347 37.9253 28.0377C37.5577 28.1899 37.0918 28.1899 36.1599 28.1899H34.1599C33.228 28.1899 32.7621 28.1899 32.3945 28.0377C31.9045 27.8347 31.5151 27.4454 31.3121 26.9553C31.1599 26.5878 31.1599 26.1218 31.1599 25.1899C31.1599 24.2581 31.1599 23.7921 31.3121 23.4246C31.5151 22.9345 31.9045 22.5452 32.3945 22.3422C32.7621 22.1899 33.228 22.1899 34.1599 22.1899H36.1599C37.0918 22.1899 37.5577 22.1899 37.9253 22.3422C38.4153 22.5452 38.8047 22.9345 39.0077 23.4246C39.1599 23.7921 39.1599 24.2581 39.1599 25.1899ZM37.1599 25.1899C37.1599 25.6833 37.1588 25.9531 37.1455 26.1481L37.1436 26.1737L37.1181 26.1756C36.923 26.1889 36.6532 26.1899 36.1599 26.1899H34.1599C33.6666 26.1899 33.3968 26.1889 33.2017 26.1756L33.1762 26.1737L33.1743 26.1481C33.161 25.9531 33.1599 25.6833 33.1599 25.1899C33.1599 24.6966 33.161 24.4268 33.1743 24.2318L33.1762 24.2062L33.2017 24.2043C33.3968 24.191 33.6666 24.1899 34.1599 24.1899H36.1599C36.6532 24.1899 36.923 24.191 37.1181 24.2043L37.1436 24.2062L37.1455 24.2318C37.1588 24.4268 37.1599 24.6966 37.1599 25.1899Z" fill="#B9BED0"/>
</g>
<defs>
<clipPath id="clip0_1_129">
<rect width="20" height="20" fill="white" transform="translate(20.1599 20.1899)"/>
</clipPath>
</defs>
</svg>
