<svg width="61" height="61" viewBox="0 0 61 61" fill="none" xmlns="http://www.w3.org/2000/svg">
<rect x="0.5" y="0.189941" width="60" height="60" rx="30" fill="#F3F6FC"/>
<g clip-path="url(#clip0_1_105)">
<path d="M37.5 23.1899C39.1569 23.1899 39.5 22.7422 39.5 22.1899C39.5 21.6377 39.1569 21.1899 37.5 21.1899H25.5C23.8432 21.1899 23.5 21.6377 23.5 22.1899C23.5 22.7422 23.8432 23.1899 25.5 23.1899H37.5Z" fill="#B9BED0"/>
<path d="M37.5 31.1899C39.1569 31.1899 39.5 30.7422 39.5 30.1899C39.5 29.6377 39.1569 29.1899 37.5 29.1899H33.5C31.8431 29.1899 31.5 29.6377 31.5 30.1899C31.5 30.7422 31.8431 31.1899 33.5 31.1899H37.5Z" fill="#B9BED0"/>
<path d="M39.5 38.1899C39.5 38.7422 39.1569 39.1899 37.5 39.1899H25.5C23.8432 39.1899 23.5 38.7422 23.5 38.1899C23.5 37.6376 23.8432 37.1899 25.5 37.1899H37.5C39.1569 37.1899 39.5 37.6376 39.5 38.1899Z" fill="#B9BED0"/>
<path fill-rule="evenodd" clip-rule="evenodd" d="M21.5 30.1899C21.5 28.3043 21.5 27.3615 22.0858 26.7757C22.6716 26.1899 23.6144 26.1899 25.5 26.1899C27.3856 26.1899 28.3284 26.1899 28.9142 26.7757C29.5 27.3615 29.5 28.3043 29.5 30.1899C29.5 32.0755 29.5 33.0183 28.9142 33.6041C28.3284 34.1899 27.3856 34.1899 25.5 34.1899C23.6144 34.1899 22.6716 34.1899 22.0858 33.6041C21.5 33.0183 21.5 32.0755 21.5 30.1899ZM25.5 32.1899C24.5006 32.1899 23.9378 32.1837 23.5574 32.1325C23.5062 31.7521 23.5 31.1892 23.5 30.1899C23.5 29.1906 23.5062 28.6277 23.5574 28.2473C23.9378 28.1962 24.5006 28.1899 25.5 28.1899C26.4994 28.1899 27.0622 28.1962 27.4426 28.2473C27.4937 28.6277 27.5 29.1906 27.5 30.1899C27.5 31.1892 27.4937 31.7521 27.4426 32.1325C27.0622 32.1837 26.4994 32.1899 25.5 32.1899Z" fill="#B9BED0"/>
</g>
<defs>
<clipPath id="clip0_1_105">
<rect width="20" height="20" fill="white" transform="translate(20.5 20.1899)"/>
</clipPath>
</defs>
</svg>
