<svg width="61" height="61" viewBox="0 0 61 61" fill="none" xmlns="http://www.w3.org/2000/svg">
<rect x="0.830078" y="0.189941" width="60" height="60" rx="30" fill="#F3F6FC"/>
<g clip-path="url(#clip0_1_118)">
<path fill-rule="evenodd" clip-rule="evenodd" d="M39.8301 25.1899C39.8301 27.3991 38.0392 29.1899 35.8301 29.1899C33.9663 29.1899 32.4002 27.9152 31.9561 26.1899H23.7995C22.168 26.1899 21.8301 25.7422 21.8301 25.1899C21.8301 24.6377 22.168 24.1899 23.7995 24.1899H31.9561C32.4002 22.4647 33.9663 21.1899 35.8301 21.1899C38.0392 21.1899 39.8301 22.9808 39.8301 25.1899ZM37.8301 25.1899C37.8301 26.2945 36.9347 27.1899 35.8301 27.1899C34.7255 27.1899 33.8301 26.2945 33.8301 25.1899C33.8301 24.0854 34.7255 23.1899 35.8301 23.1899C36.9347 23.1899 37.8301 24.0854 37.8301 25.1899Z" fill="#B9BED0"/>
<path fill-rule="evenodd" clip-rule="evenodd" d="M28.0008 35.1899H23.8301C22.1732 35.1899 21.8301 34.7422 21.8301 34.1899C21.8301 33.6376 22.1732 33.1899 23.8301 33.1899H28.0008C28.4126 32.0247 29.5239 31.1899 30.8301 31.1899C32.1363 31.1899 33.2476 32.0247 33.6594 33.1899H37.8301C39.487 33.1899 39.8301 33.6376 39.8301 34.1899C39.8301 34.7422 39.487 35.1899 37.8301 35.1899H33.6594C33.2476 36.3551 32.1363 37.1899 30.8301 37.1899C29.5239 37.1899 28.4126 36.3551 28.0008 35.1899ZM29.8301 34.1899C29.8301 34.7422 30.2778 35.1899 30.8301 35.1899C31.3824 35.1899 31.8301 34.7422 31.8301 34.1899C31.8301 33.6376 31.3824 33.1899 30.8301 33.1899C30.2778 33.1899 29.8301 33.6376 29.8301 34.1899Z" fill="#B9BED0"/>
</g>
<defs>
<clipPath id="clip0_1_118">
<rect width="20" height="20" fill="white" transform="translate(20.8301 20.1899)"/>
</clipPath>
</defs>
</svg>
