<svg width="467" height="510" viewBox="0 0 467 510" fill="none" xmlns="http://www.w3.org/2000/svg">
<rect width="465.95" height="74" transform="translate(0 218)" fill="white"/>
<g clip-path="url(#clip0_1_646)">
<mask id="mask0_1_646" style="mask-type:luminance" maskUnits="userSpaceOnUse" x="413" y="244" width="27" height="22">
<path d="M439.45 244.546H413.45V265.453H439.45V244.546Z" fill="white"/>
</mask>
<g mask="url(#mask0_1_646)">
<path d="M413.988 247.234H416.745H425.75H434.628H437.399" stroke="#080A18" stroke-width="0.821485" stroke-linecap="round" stroke-linejoin="round"/>
<path d="M413.988 262.889H416.668H425.688H434.55H437.399" stroke="#080A18" stroke-width="0.821485" stroke-linecap="round" stroke-linejoin="round"/>
<path d="M413.988 255.063H437.399" stroke="#080A18" stroke-width="0.821485" stroke-linecap="round" stroke-linejoin="round"/>
</g>
</g>
<path d="M465.45 218V292H467.45V218H465.45ZM387.45 292V218H385.45V292H387.45Z" fill="#F3F6FC" mask="url(#path-1-inside-1_1_646)"/>
<path d="M38.7734 247V263H35.8516L28.8906 252.93H28.7734V263H25.3906V247H28.3594L35.2656 257.062H35.4063V247H38.7734ZM49.708 251.602C49.6455 250.971 49.3773 250.482 48.9034 250.133C48.4294 249.784 47.7862 249.609 46.9737 249.609C46.4216 249.609 45.9554 249.687 45.5752 249.844C45.195 249.995 44.9034 250.206 44.7002 250.477C44.5023 250.747 44.4034 251.055 44.4034 251.398C44.3929 251.685 44.4528 251.935 44.583 252.148C44.7185 252.362 44.9034 252.547 45.1377 252.703C45.3721 252.854 45.6429 252.987 45.9502 253.102C46.2575 253.211 46.5857 253.305 46.9346 253.383L48.3721 253.727C49.07 253.883 49.7107 254.091 50.294 254.352C50.8773 254.612 51.3825 254.932 51.8096 255.312C52.2367 255.693 52.5674 256.141 52.8018 256.656C53.0414 257.172 53.1638 257.763 53.169 258.43C53.1638 259.409 52.9138 260.258 52.419 260.977C51.9294 261.69 51.2211 262.245 50.294 262.641C49.3721 263.031 48.2601 263.227 46.958 263.227C45.6664 263.227 44.5414 263.029 43.583 262.633C42.6299 262.237 41.8851 261.651 41.3487 260.875C40.8174 260.094 40.5388 259.128 40.5127 257.977H43.7862C43.8226 258.513 43.9763 258.961 44.2471 259.32C44.5232 259.674 44.8903 259.943 45.3487 260.125C45.8122 260.302 46.3357 260.391 46.919 260.391C47.4919 260.391 47.9893 260.307 48.4112 260.141C48.8383 259.974 49.169 259.742 49.4034 259.445C49.6377 259.148 49.7549 258.807 49.7549 258.422C49.7549 258.062 49.6482 257.76 49.4346 257.516C49.2263 257.271 48.919 257.062 48.5127 256.891C48.1117 256.719 47.6195 256.562 47.0362 256.422L45.294 255.984C43.945 255.656 42.8799 255.143 42.0987 254.445C41.3174 253.747 40.9294 252.807 40.9346 251.625C40.9294 250.656 41.1872 249.81 41.708 249.086C42.2341 248.362 42.9554 247.797 43.8721 247.391C44.7888 246.984 45.8304 246.781 46.9971 246.781C48.1846 246.781 49.2211 246.984 50.1065 247.391C50.9971 247.797 51.6898 248.362 52.1846 249.086C52.6794 249.81 52.9346 250.648 52.9502 251.602H49.708ZM58.2872 247V263H54.9044V247H58.2872ZM66.2023 263H60.5304V247H66.2491C67.8585 247 69.2439 247.32 70.4054 247.961C71.5669 248.596 72.4601 249.51 73.0851 250.703C73.7153 251.896 74.0304 253.323 74.0304 254.984C74.0304 256.651 73.7153 258.083 73.0851 259.281C72.4601 260.479 71.5616 261.398 70.3898 262.039C69.2231 262.68 67.8273 263 66.2023 263ZM63.9132 260.102H66.0616C67.0616 260.102 67.9028 259.924 68.5851 259.57C69.2726 259.211 69.7882 258.656 70.132 257.906C70.4809 257.151 70.6554 256.177 70.6554 254.984C70.6554 253.802 70.4809 252.836 70.132 252.086C69.7882 251.336 69.2752 250.784 68.5929 250.43C67.9106 250.076 67.0695 249.898 66.0695 249.898H63.9132V260.102ZM75.9963 263V247H86.7775V249.789H79.3791V253.602H86.2228V256.391H79.3791V260.211H86.8088V263H75.9963ZM90.8098 263.203C90.2941 263.203 89.8514 263.021 89.4816 262.656C89.1171 262.286 88.9348 261.844 88.9348 261.328C88.9348 260.818 89.1171 260.38 89.4816 260.016C89.8514 259.651 90.2941 259.469 90.8098 259.469C91.3098 259.469 91.7473 259.651 92.1223 260.016C92.4973 260.38 92.6848 260.818 92.6848 261.328C92.6848 261.672 92.5962 261.987 92.4191 262.273C92.2473 262.555 92.0207 262.781 91.7395 262.953C91.4582 263.12 91.1483 263.203 90.8098 263.203Z" fill="#090B19"/>
<defs>
<clipPath id="clip0_1_646">
<rect width="26" height="509" fill="white" transform="translate(413.45 0.5)"/>
</clipPath>
</defs>
</svg>
