<svg width="1392" height="218" viewBox="0 0 1392 218" fill="none" xmlns="http://www.w3.org/2000/svg">
<rect width="1392" height="218" fill="#F3F6FC"/>
<rect x="259.53" y="69.5" width="625.77" height="1" fill="#E2E7F1"/>
<path d="M56.0795 68H55.0227C54.9602 67.696 54.8509 67.429 54.6946 67.1989C54.5412 66.9688 54.3537 66.7756 54.1321 66.6193C53.9134 66.4602 53.6705 66.3409 53.4034 66.2614C53.1364 66.1818 52.858 66.142 52.5682 66.142C52.0398 66.142 51.5611 66.2756 51.1321 66.5426C50.706 66.8097 50.3665 67.2031 50.1136 67.723C49.8636 68.2429 49.7386 68.8807 49.7386 69.6364C49.7386 70.392 49.8636 71.0298 50.1136 71.5497C50.3665 72.0696 50.706 72.4631 51.1321 72.7301C51.5611 72.9972 52.0398 73.1307 52.5682 73.1307C52.858 73.1307 53.1364 73.0909 53.4034 73.0114C53.6705 72.9318 53.9134 72.8139 54.1321 72.6577C54.3537 72.4986 54.5412 72.304 54.6946 72.0739C54.8509 71.8409 54.9602 71.5739 55.0227 71.2727H56.0795C56 71.7187 55.8551 72.1179 55.6449 72.4702C55.4347 72.8224 55.1733 73.1222 54.8608 73.3693C54.5483 73.6136 54.1974 73.7997 53.8082 73.9276C53.4219 74.0554 53.0085 74.1193 52.5682 74.1193C51.8239 74.1193 51.1619 73.9375 50.5824 73.5739C50.0028 73.2102 49.5469 72.6932 49.2145 72.0227C48.8821 71.3523 48.7159 70.5568 48.7159 69.6364C48.7159 68.7159 48.8821 67.9205 49.2145 67.25C49.5469 66.5795 50.0028 66.0625 50.5824 65.6989C51.1619 65.3352 51.8239 65.1534 52.5682 65.1534C53.0085 65.1534 53.4219 65.2173 53.8082 65.3452C54.1974 65.473 54.5483 65.6605 54.8608 65.9077C55.1733 66.152 55.4347 66.4503 55.6449 66.8026C55.8551 67.152 56 67.5511 56.0795 68ZM69.1509 69.6364C69.1509 70.5568 68.9847 71.3523 68.6523 72.0227C68.32 72.6932 67.864 73.2102 67.2844 73.5739C66.7049 73.9375 66.043 74.1193 65.2987 74.1193C64.5543 74.1193 63.8924 73.9375 63.3129 73.5739C62.7333 73.2102 62.2773 72.6932 61.945 72.0227C61.6126 71.3523 61.4464 70.5568 61.4464 69.6364C61.4464 68.7159 61.6126 67.9205 61.945 67.25C62.2773 66.5795 62.7333 66.0625 63.3129 65.6989C63.8924 65.3352 64.5543 65.1534 65.2987 65.1534C66.043 65.1534 66.7049 65.3352 67.2844 65.6989C67.864 66.0625 68.32 66.5795 68.6523 67.25C68.9847 67.9205 69.1509 68.7159 69.1509 69.6364ZM68.1282 69.6364C68.1282 68.8807 68.0018 68.2429 67.7489 67.723C67.4989 67.2031 67.1594 66.8097 66.7305 66.5426C66.3043 66.2756 65.8271 66.142 65.2987 66.142C64.7702 66.142 64.2915 66.2756 63.8626 66.5426C63.4364 66.8097 63.0969 67.2031 62.8441 67.723C62.5941 68.2429 62.4691 68.8807 62.4691 69.6364C62.4691 70.392 62.5941 71.0298 62.8441 71.5497C63.0969 72.0696 63.4364 72.4631 63.8626 72.7301C64.2915 72.9972 64.7702 73.1307 65.2987 73.1307C65.8271 73.1307 66.3043 72.9972 66.7305 72.7301C67.1594 72.4631 67.4989 72.0696 67.7489 71.5497C68.0018 71.0298 68.1282 70.392 68.1282 69.6364ZM74.9279 74V65.2727H77.8768C78.5586 65.2727 79.1183 65.3892 79.5558 65.6222C79.9933 65.8523 80.3171 66.169 80.5273 66.5724C80.7376 66.9759 80.8427 67.4347 80.8427 67.9489C80.8427 68.4631 80.7376 68.919 80.5273 69.3168C80.3171 69.7145 79.9947 70.027 79.56 70.2543C79.1254 70.4787 78.57 70.5909 77.8938 70.5909H75.5075V69.6364H77.8597C78.3256 69.6364 78.7006 69.5682 78.9847 69.4318C79.2717 69.2955 79.479 69.1023 79.6069 68.8523C79.7376 68.5994 79.8029 68.2983 79.8029 67.9489C79.8029 67.5994 79.7376 67.294 79.6069 67.0327C79.4762 66.7713 79.2674 66.5696 78.9805 66.4276C78.6935 66.2827 78.3143 66.2102 77.8427 66.2102H75.9847V74H74.9279ZM79.0359 70.0795L81.1836 74H79.9563L77.8427 70.0795H79.0359ZM86.6037 74V65.2727H89.5526C90.2372 65.2727 90.7969 65.3963 91.2315 65.6435C91.669 65.8878 91.9929 66.2188 92.2031 66.6364C92.4134 67.054 92.5185 67.5199 92.5185 68.0341C92.5185 68.5483 92.4134 69.0156 92.2031 69.4361C91.9957 69.8565 91.6747 70.1918 91.2401 70.4418C90.8054 70.6889 90.2486 70.8125 89.5696 70.8125H87.456V69.875H89.5355C90.0043 69.875 90.3807 69.794 90.6648 69.6321C90.9489 69.4702 91.1548 69.2514 91.2827 68.9759C91.4134 68.6974 91.4787 68.3835 91.4787 68.0341C91.4787 67.6847 91.4134 67.3722 91.2827 67.0966C91.1548 66.821 90.9474 66.6051 90.6605 66.4489C90.3736 66.2898 89.9929 66.2102 89.5185 66.2102H87.6605V74H86.6037ZM105.585 69.6364C105.585 70.5568 105.418 71.3523 105.086 72.0227C104.754 72.6932 104.298 73.2102 103.718 73.5739C103.138 73.9375 102.477 74.1193 101.732 74.1193C100.988 74.1193 100.326 73.9375 99.7464 73.5739C99.1669 73.2102 98.7109 72.6932 98.3786 72.0227C98.0462 71.3523 97.88 70.5568 97.88 69.6364C97.88 68.7159 98.0462 67.9205 98.3786 67.25C98.7109 66.5795 99.1669 66.0625 99.7464 65.6989C100.326 65.3352 100.988 65.1534 101.732 65.1534C102.477 65.1534 103.138 65.3352 103.718 65.6989C104.298 66.0625 104.754 66.5795 105.086 67.25C105.418 67.9205 105.585 68.7159 105.585 69.6364ZM104.562 69.6364C104.562 68.8807 104.435 68.2429 104.183 67.723C103.933 67.2031 103.593 66.8097 103.164 66.5426C102.738 66.2756 102.261 66.142 101.732 66.142C101.204 66.142 100.725 66.2756 100.296 66.5426C99.87 66.8097 99.5305 67.2031 99.2777 67.723C99.0277 68.2429 98.9027 68.8807 98.9027 69.6364C98.9027 70.392 99.0277 71.0298 99.2777 71.5497C99.5305 72.0696 99.87 72.4631 100.296 72.7301C100.725 72.9972 101.204 73.1307 101.732 73.1307C102.261 73.1307 102.738 72.9972 103.164 72.7301C103.593 72.4631 103.933 72.0696 104.183 71.5497C104.435 71.0298 104.562 70.392 104.562 69.6364ZM111.362 74V65.2727H114.31C114.992 65.2727 115.552 65.3892 115.989 65.6222C116.427 65.8523 116.751 66.169 116.961 66.5724C117.171 66.9759 117.276 67.4347 117.276 67.9489C117.276 68.4631 117.171 68.919 116.961 69.3168C116.751 69.7145 116.428 70.027 115.994 70.2543C115.559 70.4787 115.004 70.5909 114.327 70.5909H111.941V69.6364H114.293C114.759 69.6364 115.134 69.5682 115.418 69.4318C115.705 69.2955 115.913 69.1023 116.04 68.8523C116.171 68.5994 116.237 68.2983 116.237 67.9489C116.237 67.5994 116.171 67.294 116.04 67.0327C115.91 66.7713 115.701 66.5696 115.414 66.4276C115.127 66.2827 114.748 66.2102 114.276 66.2102H112.418V74H111.362ZM115.469 70.0795L117.617 74H116.39L114.276 70.0795H115.469ZM123.395 74H122.287L125.492 65.2727H126.583L129.787 74H128.679L126.071 66.6534H126.003L123.395 74ZM123.804 70.5909H128.27V71.5284H123.804V70.5909ZM133.65 66.2102V65.2727H140.195V66.2102H137.451V74H136.394V66.2102H133.65ZM145.826 74V65.2727H151.093V66.2102H146.883V69.1591H150.821V70.0966H146.883V73.0625H151.162V74H145.826ZM171.396 68H170.339C170.277 67.696 170.167 67.429 170.011 67.1989C169.858 66.9688 169.67 66.7756 169.449 66.6193C169.23 66.4602 168.987 66.3409 168.72 66.2614C168.453 66.1818 168.174 66.142 167.885 66.142C167.356 66.142 166.877 66.2756 166.449 66.5426C166.022 66.8097 165.683 67.2031 165.43 67.723C165.18 68.2429 165.055 68.8807 165.055 69.6364C165.055 70.392 165.18 71.0298 165.43 71.5497C165.683 72.0696 166.022 72.4631 166.449 72.7301C166.877 72.9972 167.356 73.1307 167.885 73.1307C168.174 73.1307 168.453 73.0909 168.72 73.0114C168.987 72.9318 169.23 72.8139 169.449 72.6577C169.67 72.4986 169.858 72.304 170.011 72.0739C170.167 71.8409 170.277 71.5739 170.339 71.2727H171.396C171.316 71.7187 171.172 72.1179 170.961 72.4702C170.751 72.8224 170.49 73.1222 170.177 73.3693C169.865 73.6136 169.514 73.7997 169.125 73.9276C168.738 74.0554 168.325 74.1193 167.885 74.1193C167.14 74.1193 166.478 73.9375 165.899 73.5739C165.319 73.2102 164.863 72.6932 164.531 72.0227C164.199 71.3523 164.032 70.5568 164.032 69.6364C164.032 68.7159 164.199 67.9205 164.531 67.25C164.863 66.5795 165.319 66.0625 165.899 65.6989C166.478 65.3352 167.14 65.1534 167.885 65.1534C168.325 65.1534 168.738 65.2173 169.125 65.3452C169.514 65.473 169.865 65.6605 170.177 65.9077C170.49 66.152 170.751 66.4503 170.961 66.8026C171.172 67.152 171.316 67.5511 171.396 68ZM177.104 74V65.2727H178.161V73.0625H182.217V74H177.104ZM188.911 65.2727V74H187.854V65.2727H188.911ZM195.029 74V65.2727H200.297V66.2102H196.086V69.1591H200.024V70.0966H196.086V73.0625H200.365V74H195.029ZM213.122 65.2727V74H212.099L207.343 67.1477H207.258V74H206.201V65.2727H207.224L211.997 72.142H212.082V65.2727H213.122ZM218.759 66.2102V65.2727H225.305V66.2102H222.56V74H221.504V66.2102H218.759ZM235.708 67.4545C235.657 67.0227 235.45 66.6875 235.086 66.4489C234.723 66.2102 234.277 66.0909 233.748 66.0909C233.362 66.0909 233.024 66.1534 232.734 66.2784C232.447 66.4034 232.223 66.5753 232.061 66.794C231.902 67.0128 231.822 67.2614 231.822 67.5398C231.822 67.7727 231.877 67.973 231.988 68.1406C232.102 68.3054 232.247 68.4432 232.423 68.554C232.599 68.6619 232.784 68.7514 232.977 68.8224C233.17 68.8906 233.348 68.946 233.51 68.9886L234.396 69.2273C234.623 69.2869 234.876 69.3693 235.154 69.4744C235.436 69.5795 235.704 69.723 235.96 69.9048C236.218 70.0838 236.431 70.3139 236.599 70.5952C236.767 70.8764 236.85 71.2216 236.85 71.6307C236.85 72.1023 236.727 72.5284 236.48 72.9091C236.235 73.2898 235.877 73.5923 235.406 73.8168C234.937 74.0412 234.368 74.1534 233.697 74.1534C233.072 74.1534 232.531 74.0526 232.074 73.8509C231.619 73.6491 231.261 73.3679 231 73.0071C230.741 72.6463 230.595 72.2273 230.561 71.75H231.652C231.68 72.0795 231.791 72.3523 231.984 72.5682C232.18 72.7812 232.427 72.9403 232.725 73.0455C233.027 73.1477 233.35 73.1989 233.697 73.1989C234.1 73.1989 234.463 73.1335 234.784 73.0028C235.105 72.8693 235.359 72.6847 235.547 72.4489C235.734 72.2102 235.828 71.9318 235.828 71.6136C235.828 71.3239 235.747 71.0881 235.585 70.9062C235.423 70.7244 235.21 70.5767 234.946 70.4631C234.681 70.3494 234.396 70.25 234.089 70.1648L233.015 69.858C232.333 69.6619 231.794 69.3821 231.396 69.0185C230.998 68.6548 230.799 68.179 230.799 67.5909C230.799 67.1023 230.931 66.6761 231.196 66.3125C231.463 65.946 231.821 65.6619 232.27 65.4602C232.721 65.2557 233.225 65.1534 233.782 65.1534C234.345 65.1534 234.845 65.2543 235.282 65.456C235.72 65.6548 236.066 65.9276 236.322 66.2741C236.581 66.6207 236.717 67.0142 236.731 67.4545H235.708Z" fill="#6E7488"/>
<g clip-path="url(#clip0_1_41)">
<g clip-path="url(#clip1_1_41)">
<mask id="mask0_1_41" style="mask-type:luminance" maskUnits="userSpaceOnUse" x="277" y="116" width="118" height="42">
<path d="M395 116H277V158H395V116Z" fill="white"/>
</mask>
<g mask="url(#mask0_1_41)">
<path d="M334.722 137.285C335.533 137.914 336.301 138.596 337.019 139.327C337.825 140.14 338.621 141.017 339.406 141.958C340.191 142.899 340.932 143.853 341.629 144.822C342.265 145.692 342.856 146.595 343.398 147.525H339.459C338.921 146.642 338.336 145.787 337.707 144.965C337.043 144.093 336.35 143.258 335.626 142.46C334.933 141.688 334.199 140.952 333.428 140.257C332.76 139.65 332.051 139.089 331.307 138.577V147.527H327.923V120.317L331.287 119.744V136.714L333.197 134.824C333.897 134.134 334.584 133.43 335.259 132.712C335.933 131.993 336.57 131.308 337.168 130.654C337.77 129.998 338.289 129.42 338.723 128.917H342.677C342.123 129.515 341.52 130.171 340.87 130.887C340.219 131.602 339.544 132.324 338.844 133.052C338.146 133.78 337.439 134.508 336.722 135.236L334.722 137.285Z" fill="#B9BED0"/>
<path d="M343.148 150.996C343.481 151.139 343.826 151.252 344.179 151.336C344.586 151.442 345.005 151.496 345.426 151.498C346.753 151.498 347.789 151.205 348.536 150.62C349.283 150.035 349.958 149.086 350.56 147.775C349.041 144.91 347.627 141.874 346.317 138.665C345.015 135.486 343.922 132.227 343.046 128.908H346.652C346.918 129.984 347.238 131.141 347.611 132.382C347.985 133.622 348.4 134.899 348.859 136.212C349.317 137.525 349.812 138.838 350.344 140.15C350.875 141.461 351.43 142.726 352.007 143.944C352.923 141.44 353.719 138.957 354.393 136.498C355.068 134.038 355.704 131.508 356.302 128.908H359.773C358.905 132.418 357.941 135.789 356.882 139.022C355.822 142.254 354.677 145.28 353.445 148.098C353.022 149.062 352.521 149.99 351.945 150.872C351.474 151.593 350.895 152.239 350.227 152.787C349.598 153.288 348.878 153.664 348.106 153.896C347.243 154.147 346.347 154.268 345.448 154.255C345.169 154.254 344.892 154.236 344.616 154.201C344.325 154.165 344.043 154.117 343.767 154.058C343.492 153.999 343.237 153.932 343.008 153.861C342.841 153.812 342.679 153.752 342.52 153.682L343.148 150.996Z" fill="#B9BED0"/>
<path d="M367.955 128.445C369.116 128.415 370.274 128.59 371.373 128.963C372.216 129.25 372.974 129.74 373.577 130.391C374.181 131.041 374.61 131.83 374.826 132.687C375.075 133.627 375.196 134.596 375.187 135.568V147.202L373.976 147.399C373.458 147.483 372.873 147.561 372.221 147.632C371.569 147.704 370.862 147.77 370.1 147.83C369.34 147.889 368.587 147.918 367.841 147.918C366.854 147.927 365.871 147.819 364.911 147.597C364.08 147.41 363.293 147.063 362.597 146.576C361.938 146.102 361.414 145.467 361.078 144.732C360.694 143.864 360.508 142.923 360.535 141.975C360.51 141.053 360.73 140.14 361.171 139.327C361.582 138.597 362.172 137.982 362.887 137.538C363.667 137.062 364.524 136.722 365.42 136.534C366.417 136.316 367.435 136.208 368.456 136.213C368.795 136.213 369.143 136.232 369.506 136.267C369.869 136.303 370.21 136.349 370.537 136.41C370.863 136.471 371.146 136.523 371.385 136.57C371.625 136.616 371.795 136.654 371.892 136.679V135.74C371.892 135.193 371.831 134.647 371.712 134.113C371.599 133.595 371.377 133.107 371.061 132.68C370.725 132.245 370.283 131.901 369.777 131.679C369.106 131.403 368.382 131.274 367.656 131.303C366.683 131.295 365.712 131.374 364.754 131.54C364.119 131.643 363.495 131.805 362.891 132.025L362.491 129.268C363.191 129.005 363.919 128.82 364.661 128.714C365.748 128.527 366.851 128.437 367.955 128.445ZM368.244 145.127C369.039 145.127 369.745 145.108 370.365 145.073C370.882 145.05 371.397 144.984 371.903 144.875V139.327C371.528 139.171 371.132 139.068 370.728 139.022C370.075 138.931 369.416 138.889 368.757 138.896C368.218 138.899 367.681 138.936 367.147 139.006C366.607 139.069 366.082 139.22 365.592 139.453C365.134 139.67 364.732 139.989 364.417 140.383C364.085 140.834 363.92 141.383 363.948 141.939C363.948 143.135 364.333 143.965 365.104 144.428C365.875 144.891 366.921 145.124 368.244 145.127Z" fill="#B9BED0"/>
<path d="M379.308 129.44C380.081 129.248 381.105 129.045 382.382 128.831C383.841 128.603 385.317 128.496 386.795 128.51C388.288 128.51 389.53 128.72 390.52 129.14C391.448 129.513 392.264 130.118 392.887 130.895C393.5 131.694 393.927 132.617 394.137 133.598C394.386 134.738 394.507 135.902 394.497 137.069V147.523H391.129V137.787C391.142 136.802 391.063 135.818 390.893 134.847C390.78 134.144 390.514 133.472 390.114 132.88C389.755 132.379 389.25 131.999 388.668 131.788C387.948 131.542 387.189 131.427 386.428 131.447C386.065 131.447 385.691 131.46 385.305 131.483C384.919 131.506 384.552 131.536 384.202 131.571C383.852 131.607 383.538 131.649 383.263 131.697L382.666 131.804V147.521H379.308V129.44Z" fill="#B9BED0"/>
<path d="M297.626 137.952C294.94 135.235 291.734 133.078 288.194 131.606C284.655 130.134 280.854 129.377 277.015 129.379V144.651C279.903 144.654 282.713 145.574 285.034 147.274C287.356 148.975 289.065 151.368 289.912 154.101C290.727 148.055 293.423 142.411 297.626 137.952Z" fill="#B9BED0"/>
<path d="M319.412 129.379V144.651C315.837 144.655 312.409 146.063 309.881 148.566C307.353 151.068 305.931 154.461 305.927 158H290.5C290.5 142.219 303.47 129.379 319.412 129.379Z" fill="#B9BED0"/>
<path d="M298.214 131.12C302.432 131.12 305.851 127.735 305.851 123.56C305.851 119.385 302.432 116 298.214 116C293.996 116 290.577 119.385 290.577 123.56C290.577 127.735 293.996 131.12 298.214 131.12Z" fill="#B9BED0"/>
</g>
</g>
</g>
<g clip-path="url(#clip2_1_41)">
<g clip-path="url(#clip3_1_41)">
<mask id="mask1_1_41" style="mask-type:luminance" maskUnits="userSpaceOnUse" x="514" y="120" width="121" height="34">
<path d="M634.768 120.53H514.772V153.47H634.768V120.53Z" fill="white"/>
</mask>
<g mask="url(#mask1_1_41)">
<path d="M525.587 133.49C525.103 132.49 524.888 131.384 524.961 130.277C525.034 129.17 525.394 128.101 526.005 127.173C526.616 126.246 527.457 125.491 528.448 124.982C529.439 124.474 530.544 124.229 531.658 124.271C532.772 124.313 533.856 124.642 534.805 125.224C535.753 125.806 536.535 126.622 537.073 127.593C537.611 128.564 537.888 129.658 537.876 130.767C537.865 131.876 537.565 132.963 537.007 133.923L531.79 142.929L533.354 145.625L539.359 135.275C540.544 133.18 540.851 130.705 540.213 128.386C539.575 126.067 538.044 124.092 535.952 122.89C533.86 121.688 531.375 121.356 529.038 121.965C526.701 122.575 524.7 124.077 523.47 126.146C522.816 127.257 522.409 128.495 522.276 129.776C522.143 131.057 522.287 132.351 522.698 133.572C523.117 133.52 523.538 133.493 523.96 133.493L525.587 133.49Z" fill="#B9BED0"/>
<path d="M546.631 138.727C545.983 137.595 545.096 136.615 544.03 135.856C542.965 135.098 541.748 134.577 540.461 134.332C540.298 134.72 540.11 135.098 539.9 135.463L539.082 136.871C540.198 136.94 541.277 137.294 542.214 137.902C543.151 138.509 543.913 139.347 544.427 140.335C544.941 141.323 545.189 142.427 545.146 143.539C545.103 144.65 544.771 145.732 544.183 146.678C543.595 147.624 542.77 148.402 541.789 148.936C540.808 149.47 539.705 149.742 538.587 149.725C537.469 149.708 536.375 149.403 535.411 148.839C534.447 148.276 533.647 147.473 533.088 146.509L527.879 137.533H524.752L530.741 147.857C530.946 148.209 531.175 148.548 531.424 148.871L531.474 148.935C532.327 150.028 533.421 150.91 534.671 151.515C535.922 152.119 537.295 152.429 538.685 152.421C540.295 152.42 541.877 151.998 543.272 151.197C544.666 150.396 545.824 149.243 546.629 147.856C547.434 146.468 547.858 144.894 547.858 143.292C547.858 141.689 547.435 140.115 546.63 138.727H546.631Z" fill="#B9BED0"/>
<path d="M529.362 146.826C528.756 147.743 527.925 148.491 526.947 148.998C525.968 149.505 524.876 149.755 523.773 149.723C522.671 149.692 521.595 149.38 520.647 148.817C519.7 148.255 518.913 147.46 518.362 146.509C517.795 145.531 517.496 144.422 517.496 143.293C517.496 142.164 517.795 141.054 518.362 140.076C518.929 139.098 519.745 138.286 520.728 137.721C521.71 137.156 522.825 136.858 523.96 136.858H534.398L535.958 134.163H523.96C522.745 134.147 521.538 134.371 520.411 134.823C519.284 135.274 518.258 135.944 517.393 136.793C516.528 137.643 515.841 138.654 515.372 139.77C514.904 140.886 514.662 142.083 514.662 143.292C514.662 144.501 514.904 145.698 515.372 146.814C515.841 147.929 516.528 148.941 517.393 149.791C518.258 150.64 519.284 151.31 520.411 151.761C521.538 152.213 522.745 152.437 523.96 152.42C525.274 152.428 526.574 152.151 527.77 151.609C528.966 151.067 530.029 150.273 530.886 149.281C530.619 148.937 530.374 148.576 530.155 148.199L529.362 146.826Z" fill="#B9BED0"/>
<path d="M553.442 148.529V125.026H556.163V139.788L564.02 132.261H567.621L559.842 139.714L567.853 148.529H564.108L556.163 139.8V148.529H553.442Z" fill="#B9BED0"/>
<path d="M580.235 144.883C579.405 146.237 578.407 147.257 577.241 147.943C576.075 148.63 575.003 148.973 574.025 148.973C572.66 148.973 571.434 148.386 570.346 147.212C569.258 146.039 568.714 144.257 568.714 141.869C568.714 139.987 569.075 138.306 569.798 136.825C570.45 135.429 571.449 134.221 572.701 133.316C573.915 132.457 575.414 132.027 577.198 132.027C577.714 132.027 578.493 132.082 579.535 132.192C579.692 132.211 579.926 132.234 580.237 132.264H582.963V143.752C582.963 145.714 583.172 147.306 583.592 148.528H580.758C580.492 147.328 580.317 146.11 580.235 144.883ZM580.245 141.645V134.664C579.367 134.422 578.46 134.294 577.549 134.283C575.868 134.283 574.469 134.93 573.35 136.223C572.231 137.517 571.672 139.274 571.672 141.494C571.672 143.108 571.977 144.325 572.588 145.145C573.2 145.965 573.896 146.379 574.677 146.387C575.526 146.387 576.464 145.959 577.491 145.104C578.518 144.249 579.436 143.096 580.245 141.645Z" fill="#B9BED0"/>
<path d="M586.273 148.528V132.261H588.994V135.814C589.702 134.635 590.667 133.63 591.818 132.872C592.921 132.164 594.024 131.81 595.128 131.81C596.062 131.801 596.979 132.067 597.761 132.574C598.517 133.045 599.098 133.747 599.416 134.575C599.733 135.401 599.891 137.022 599.891 139.439V148.528H597.174V139.103C597.174 137.541 597.098 136.51 596.946 136.01C596.805 135.524 596.517 135.094 596.119 134.779C595.747 134.471 595.279 134.301 594.795 134.298C593.838 134.298 592.812 134.75 591.715 135.652C590.59 136.59 589.667 137.744 589.002 139.045V148.528H586.273Z" fill="#B9BED0"/>
<path d="M605.571 135.918C606.41 134.553 607.41 133.528 608.57 132.844C609.732 132.16 610.799 131.815 611.775 131.81C613.141 131.81 614.369 132.397 615.461 133.571C616.552 134.744 617.099 136.525 617.099 138.913C617.099 140.798 616.736 142.479 616.01 143.958C615.355 145.353 614.356 146.56 613.106 147.466C611.897 148.326 610.401 148.756 608.615 148.756C608.107 148.756 607.326 148.701 606.273 148.591C606.118 148.573 605.884 148.548 605.571 148.519H602.851V125.026H605.571V135.918ZM605.571 139.137V146.121C606.459 146.36 607.374 146.487 608.293 146.5C609.941 146.5 611.329 145.856 612.455 144.568C613.582 143.28 614.145 141.518 614.145 139.284C614.145 137.661 613.838 136.442 613.224 135.626C612.609 134.81 611.911 134.402 611.131 134.401C610.282 134.401 609.348 134.828 608.329 135.684C607.311 136.539 606.392 137.691 605.571 139.141V139.137Z" fill="#B9BED0"/>
<path d="M630.578 144.884C629.748 146.237 628.752 147.257 627.587 147.944C626.421 148.63 625.35 148.973 624.374 148.973C623.009 148.973 621.785 148.386 620.699 147.211C619.614 146.036 619.071 144.255 619.069 141.868C619.069 139.986 619.43 138.304 620.151 136.823C620.804 135.427 621.802 134.22 623.053 133.315C624.266 132.455 625.765 132.025 627.549 132.025C628.067 132.025 628.847 132.08 629.887 132.19C630.043 132.21 630.276 132.233 630.588 132.263H633.311V143.752C633.311 145.714 633.522 147.306 633.94 148.528H631.102C630.837 147.328 630.662 146.11 630.578 144.884ZM630.591 141.646V134.664C629.712 134.423 628.806 134.295 627.894 134.283C626.213 134.283 624.812 134.93 623.695 136.224C622.577 137.517 622.019 139.274 622.017 141.494C622.017 143.108 622.323 144.325 622.934 145.145C623.546 145.966 624.24 146.38 625.022 146.387C625.872 146.387 626.81 145.96 627.835 145.104C628.859 144.249 629.779 143.096 630.591 141.646Z" fill="#B9BED0"/>
</g>
</g>
</g>
<g clip-path="url(#clip4_1_41)">
<g clip-path="url(#clip5_1_41)">
<path d="M798.66 143.905C797.066 142.218 796.268 140.06 796.267 137.43C796.266 134.801 797.059 132.674 798.646 131.05C800.229 129.428 802.224 128.617 804.631 128.616C806.009 128.585 807.366 128.945 808.542 129.652C809.625 130.306 810.503 131.241 811.079 132.355V128.897H814.018V146.152H811.079V142.631C810.507 143.761 809.629 144.713 808.542 145.382C807.37 146.098 806.011 146.463 804.631 146.432C802.248 146.433 800.257 145.591 798.66 143.905ZM809.341 142.223C810.5 141.05 811.079 139.489 811.079 137.54C811.079 135.592 810.5 134.031 809.341 132.857C808.806 132.294 808.158 131.846 807.438 131.543C806.717 131.24 805.941 131.088 805.158 131.097C804.379 131.087 803.607 131.232 802.888 131.525C802.169 131.818 801.518 132.251 800.974 132.8C799.815 133.931 799.236 135.471 799.236 137.42C799.236 139.368 799.821 140.95 800.99 142.166C802.161 143.38 803.556 143.988 805.174 143.989C805.955 143.996 806.729 143.843 807.446 143.539C808.164 143.235 808.809 142.787 809.341 142.223Z" fill="#B9BED0"/>
<path d="M815.518 128.897H818.615L823.979 143.475L829.374 128.897H832.503L825.639 146.152H822.35L815.518 128.897Z" fill="#B9BED0"/>
<path d="M841.346 146.434C838.836 146.434 836.793 145.618 835.216 143.984C833.64 142.351 832.852 140.193 832.854 137.509C832.854 134.826 833.652 132.673 835.248 131.05C836.845 129.427 838.914 128.616 841.458 128.616C844.002 128.616 846.045 129.386 847.587 130.926C849.131 132.466 849.901 134.43 849.899 136.818C849.902 137.386 849.859 137.954 849.772 138.515H835.824C835.907 140.234 836.455 141.59 837.467 142.584C838.479 143.578 839.772 144.076 841.346 144.077C842.538 144.077 843.546 143.815 844.368 143.291C845.162 142.791 845.786 142.069 846.16 141.217H849.289C848.742 142.719 847.746 144.023 846.432 144.957C845.085 145.943 843.389 146.435 841.346 146.434ZM845.272 132.466C844.229 131.471 842.937 130.973 841.392 130.973C839.847 130.973 838.566 131.46 837.545 132.434C836.526 133.407 835.961 134.742 835.849 136.44H846.872C846.849 134.787 846.316 133.462 845.272 132.466Z" fill="#B9BED0"/>
<path d="M855.14 128.897V131.697C856.331 129.643 858.236 128.616 860.853 128.617C862.792 128.616 864.412 129.252 865.716 130.525C867.02 131.798 867.671 133.606 867.671 135.95V146.152H864.781V136.408C864.781 134.67 864.355 133.35 863.504 132.45C862.653 131.549 861.477 131.098 859.975 131.097C858.475 131.097 857.294 131.548 856.433 132.45C855.571 133.352 855.14 134.671 855.14 136.408V146.152H852.233V128.897H855.14Z" fill="#B9BED0"/>
<path d="M873.538 145.617C873.277 145.873 872.943 146.046 872.583 146.116C872.22 146.186 871.846 146.149 871.506 146.01C871.164 145.87 870.874 145.635 870.67 145.333C870.466 145.031 870.356 144.676 870.356 144.313C870.356 143.95 870.466 143.595 870.67 143.294C870.874 142.992 871.164 142.756 871.506 142.617C871.846 142.477 872.22 142.44 872.583 142.51C872.943 142.58 873.277 142.754 873.538 143.009C873.886 143.357 874.08 143.825 874.08 144.313C874.08 144.801 873.886 145.269 873.538 145.617Z" fill="#B9BED0"/>
<path d="M773.645 150.183H773.51H773.38C773.172 150.183 772.955 150.197 772.738 150.197C768.562 150.198 764.513 148.782 761.275 146.186C758.036 143.591 755.806 139.976 754.96 135.95C755.138 146.226 763.031 154.5 772.738 154.5C782.438 154.5 790.322 146.235 790.516 135.964C789.71 139.844 787.614 143.348 784.558 145.923C781.503 148.498 777.663 149.997 773.645 150.183Z" fill="#B9BED0"/>
<path d="M755.739 130.467C755.515 130.467 755.293 130.467 755.072 130.485C754.998 131.128 754.961 131.774 754.96 132.42C754.96 142.045 762.919 149.854 772.738 149.854C772.962 149.854 773.182 149.854 773.405 149.838C773.478 149.196 773.515 148.549 773.517 147.903C773.517 138.274 765.558 130.467 755.739 130.467Z" fill="#B9BED0"/>
<path d="M790.406 130.49C780.999 130.945 773.517 138.566 773.517 147.903C773.517 138.278 765.558 130.467 755.739 130.467C755.515 130.467 755.293 130.467 755.072 130.485C754.998 131.128 754.961 131.774 754.96 132.42C754.96 142.045 762.919 149.854 772.738 149.854C772.962 149.854 773.182 149.854 773.405 149.838C773.479 149.838 773.554 149.838 773.627 149.838C783.033 149.383 790.516 141.762 790.516 132.426C790.515 131.779 790.478 131.133 790.406 130.49Z" fill="#B9BED0"/>
<path d="M790.406 130.49C780.999 130.945 773.517 138.566 773.517 147.903C773.517 138.278 765.558 130.467 755.739 130.467C755.515 130.467 755.293 130.467 755.072 130.485C754.998 131.128 754.961 131.774 754.96 132.42C754.96 142.045 762.919 149.854 772.738 149.854C772.962 149.854 773.182 149.854 773.405 149.838C773.479 149.838 773.554 149.838 773.627 149.838C783.033 149.383 790.516 141.762 790.516 132.426C790.515 131.779 790.478 131.133 790.406 130.49Z" fill="#B9BED0"/>
<path d="M772.738 132.1C776.273 132.1 779.138 129.279 779.138 125.8C779.138 122.321 776.273 119.5 772.738 119.5C769.203 119.5 766.338 122.321 766.338 125.8C766.338 129.279 769.203 132.1 772.738 132.1Z" fill="#B9BED0"/>
</g>
</g>
<g clip-path="url(#clip6_1_41)">
<g clip-path="url(#clip7_1_41)">
<path d="M1012.15 119C1002.29 119 994.3 127.059 994.3 137C994.3 146.942 1002.29 155 1012.15 155C1022.01 155 1030 146.942 1030 137C1030 127.059 1022.01 119.001 1012.15 119.001L1012.15 119ZM1020.34 144.961C1020.02 145.491 1019.33 145.657 1018.81 145.334C1014.62 142.751 1009.34 142.167 1003.13 143.598C1002.53 143.737 1001.93 143.358 1001.79 142.755C1001.66 142.151 1002.03 141.549 1002.63 141.412C1009.43 139.844 1015.26 140.519 1019.97 143.418C1020.49 143.742 1020.66 144.432 1020.34 144.961ZM1022.52 140.06C1022.12 140.721 1021.26 140.928 1020.61 140.522C1015.81 137.549 1008.5 136.688 1002.82 138.425C1002.08 138.649 1001.31 138.231 1001.08 137.49C1000.86 136.748 1001.28 135.965 1002.01 135.739C1008.49 133.756 1016.55 134.717 1022.06 138.131C1022.72 138.537 1022.93 139.401 1022.52 140.06ZM1022.71 134.957C1016.96 131.511 1007.46 131.194 1001.97 132.875C1001.09 133.145 1000.16 132.643 999.889 131.753C999.622 130.863 1000.12 129.924 1001 129.653C1007.31 127.723 1017.79 128.096 1024.41 132.061C1025.21 132.536 1025.47 133.569 1025 134.368C1024.53 135.168 1023.5 135.432 1022.71 134.957ZM1042.87 135.617C1039.78 134.876 1039.24 134.356 1039.24 133.263C1039.24 132.23 1040.2 131.535 1041.63 131.535C1043.02 131.535 1044.4 132.063 1045.85 133.149C1045.89 133.182 1045.95 133.195 1046 133.187C1046.05 133.178 1046.1 133.149 1046.13 133.104L1047.64 130.965C1047.7 130.876 1047.68 130.755 1047.6 130.688C1045.88 129.296 1043.94 128.62 1041.68 128.62C1038.35 128.62 1036.03 130.634 1036.03 133.515C1036.03 136.605 1038.03 137.699 1041.5 138.543C1044.45 139.228 1044.94 139.802 1044.94 140.828C1044.94 141.965 1043.94 142.672 1042.32 142.672C1040.52 142.672 1039.05 142.061 1037.41 140.627C1037.37 140.592 1037.31 140.576 1037.26 140.579C1037.21 140.583 1037.16 140.609 1037.12 140.65L1035.44 142.675C1035.37 142.759 1035.37 142.885 1035.46 142.958C1037.37 144.677 1039.72 145.585 1042.25 145.585C1045.84 145.585 1048.15 143.609 1048.15 140.551C1048.16 137.97 1046.63 136.541 1042.87 135.62L1042.87 135.617ZM1056.27 132.552C1054.71 132.552 1053.44 133.169 1052.39 134.434V133.01C1052.39 132.898 1052.3 132.806 1052.18 132.806H1049.42C1049.31 132.806 1049.22 132.898 1049.22 133.01V148.83C1049.22 148.943 1049.31 149.035 1049.42 149.035H1052.18C1052.3 149.035 1052.39 148.943 1052.39 148.83V143.837C1053.44 145.027 1054.71 145.608 1056.27 145.608C1059.15 145.608 1062.08 143.366 1062.08 139.081C1062.08 134.794 1059.16 132.552 1056.27 132.552L1056.27 132.552ZM1058.87 139.081C1058.87 141.263 1057.54 142.786 1055.63 142.786C1053.74 142.786 1052.32 141.194 1052.32 139.081C1052.32 136.968 1053.74 135.376 1055.63 135.376C1057.51 135.375 1058.87 136.934 1058.87 139.081ZM1069.57 132.552C1065.85 132.552 1062.94 135.44 1062.94 139.127C1062.94 142.775 1065.83 145.632 1069.53 145.632C1073.26 145.632 1076.18 142.754 1076.18 139.081C1076.18 135.42 1073.28 132.552 1069.57 132.552ZM1069.57 142.808C1067.59 142.808 1066.1 141.205 1066.1 139.08C1066.1 136.945 1067.54 135.397 1069.53 135.397C1071.52 135.397 1073.02 137 1073.02 139.126C1073.02 141.26 1071.57 142.808 1069.57 142.808ZM1084.13 132.806H1081.09V129.676C1081.09 129.563 1081 129.472 1080.89 129.472H1078.13C1078.02 129.472 1077.93 129.563 1077.93 129.676V132.806H1076.6C1076.49 132.806 1076.4 132.898 1076.4 133.01V135.402C1076.4 135.514 1076.49 135.606 1076.6 135.606H1077.93V141.794C1077.93 144.295 1079.16 145.563 1081.59 145.563C1082.58 145.563 1083.41 145.357 1084.18 144.915C1084.24 144.879 1084.28 144.811 1084.28 144.738V142.461C1084.28 142.39 1084.25 142.324 1084.19 142.287C1084.13 142.249 1084.05 142.247 1083.99 142.278C1083.46 142.548 1082.94 142.672 1082.37 142.672C1081.48 142.672 1081.09 142.267 1081.09 141.358V135.607H1084.13C1084.24 135.607 1084.33 135.516 1084.33 135.403V133.012C1084.33 132.899 1084.24 132.808 1084.13 132.808L1084.13 132.806ZM1094.71 132.819V132.434C1094.71 131.303 1095.14 130.798 1096.1 130.798C1096.68 130.798 1097.14 130.914 1097.66 131.088C1097.72 131.108 1097.79 131.098 1097.84 131.059C1097.89 131.021 1097.92 130.959 1097.92 130.894V128.549C1097.92 128.459 1097.87 128.38 1097.78 128.353C1097.23 128.189 1096.53 128.021 1095.49 128.021C1092.94 128.021 1091.59 129.469 1091.59 132.205V132.794H1090.26C1090.15 132.794 1090.06 132.886 1090.06 132.998V135.402C1090.06 135.514 1090.15 135.606 1090.26 135.606H1091.59V145.151C1091.59 145.264 1091.68 145.355 1091.79 145.355H1094.55C1094.66 145.355 1094.75 145.264 1094.75 145.151V135.607H1097.33L1101.28 145.15C1100.83 146.152 1100.39 146.352 1099.79 146.352C1099.3 146.352 1098.79 146.205 1098.27 145.917C1098.21 145.889 1098.16 145.885 1098.1 145.901C1098.05 145.92 1098.01 145.96 1097.98 146.011L1097.05 148.08C1097 148.178 1097.04 148.293 1097.14 148.344C1098.11 148.877 1098.99 149.105 1100.08 149.105C1102.12 149.105 1103.25 148.147 1104.24 145.572L1109.03 133.097C1109.05 133.034 1109.04 132.963 1109.01 132.908C1108.97 132.853 1108.91 132.819 1108.84 132.819H1105.97C1105.88 132.819 1105.8 132.874 1105.78 132.956L1102.83 141.433L1099.61 132.95C1099.58 132.871 1099.51 132.819 1099.42 132.819H1094.71L1094.71 132.819ZM1088.57 132.806H1085.81C1085.7 132.806 1085.61 132.898 1085.61 133.01V145.151C1085.61 145.264 1085.7 145.355 1085.81 145.355H1088.57C1088.68 145.355 1088.77 145.264 1088.77 145.151V133.011C1088.77 132.984 1088.77 132.958 1088.76 132.933C1088.75 132.908 1088.73 132.886 1088.72 132.867C1088.7 132.848 1088.67 132.833 1088.65 132.823C1088.62 132.812 1088.6 132.807 1088.57 132.807V132.806ZM1087.21 127.278C1086.11 127.278 1085.23 128.171 1085.23 129.273C1085.23 130.376 1086.11 131.27 1087.21 131.27C1088.3 131.27 1089.19 130.376 1089.19 129.273C1089.19 128.171 1088.3 127.278 1087.21 127.278ZM1111.39 136.71C1110.29 136.71 1109.44 135.825 1109.44 134.751C1109.44 133.677 1110.3 132.783 1111.4 132.783C1112.49 132.783 1113.34 133.667 1113.34 134.74C1113.34 135.814 1112.48 136.71 1111.38 136.71H1111.39ZM1111.4 132.978C1110.4 132.978 1109.65 133.775 1109.65 134.751C1109.65 135.727 1110.4 136.514 1111.39 136.514C1112.38 136.514 1113.13 135.717 1113.13 134.74C1113.13 133.764 1112.39 132.978 1111.4 132.978H1111.4ZM1111.83 134.942L1112.37 135.717H1111.91L1111.42 135.006H1110.99V135.717H1110.6V133.661H1111.51C1111.99 133.661 1112.3 133.906 1112.3 134.317C1112.3 134.654 1112.11 134.86 1111.83 134.942H1111.83ZM1111.5 134.014H1110.99V134.664H1111.5C1111.75 134.664 1111.9 134.54 1111.9 134.339C1111.9 134.127 1111.75 134.014 1111.5 134.014Z" fill="#B9BED0"/>
</g>
</g>
<defs>
<clipPath id="clip0_1_41">
<rect width="118" height="42" fill="white" transform="translate(277 116)"/>
</clipPath>
<clipPath id="clip1_1_41">
<rect width="118" height="42" fill="white" transform="translate(277 116)"/>
</clipPath>
<clipPath id="clip2_1_41">
<rect width="120" height="32.94" fill="white" transform="translate(514.77 120.53)"/>
</clipPath>
<clipPath id="clip3_1_41">
<rect width="119.996" height="32.94" fill="white" transform="translate(514.772 120.53)"/>
</clipPath>
<clipPath id="clip4_1_41">
<rect width="120" height="35" fill="white" transform="translate(754.53 119.5)"/>
</clipPath>
<clipPath id="clip5_1_41">
<rect width="120" height="35" fill="white" transform="translate(754.53 119.5)"/>
</clipPath>
<clipPath id="clip6_1_41">
<rect width="120" height="36" fill="white" transform="translate(994.3 119)"/>
</clipPath>
<clipPath id="clip7_1_41">
<rect width="120" height="36" fill="white" transform="translate(994.3 119)"/>
</clipPath>
</defs>
</svg>
