<svg width="92" height="158" viewBox="0 0 92 158" fill="none" xmlns="http://www.w3.org/2000/svg">
<rect width="91.5" height="158" fill="#F3F6FC"/>
<path d="M49.75 115.873V116.786H41.8975V112.414H42.7031V115.873H45.582V112.623H46.3823V115.873H49.75ZM49.75 103.731V108.103H41.8975V103.731H42.7031V107.19H45.2437V103.93H46.0386V107.19H48.9443V103.731H49.75ZM49.75 94.0654L47.2578 95.0322V98.1797L49.75 99.1411V100.065L41.8652 96.9927V96.1709L49.75 93.1201V94.0654ZM46.4468 95.3062L43.9707 96.2246C43.9062 96.2461 43.8006 96.2819 43.6538 96.332C43.507 96.3786 43.3548 96.4269 43.1973 96.4771C43.0397 96.5272 42.9126 96.5684 42.8159 96.6006C42.9627 96.6364 43.1095 96.6758 43.2563 96.7188C43.3996 96.7581 43.5339 96.7975 43.6592 96.8369C43.7809 96.8763 43.8848 96.9103 43.9707 96.939L46.4468 97.8735V95.3062ZM49.75 86.6182V87.5366H42.7031V90.0073H41.8975V84.1582H42.7031V86.6182H49.75ZM41.8975 74.0308H46.9785C47.5335 74.0308 48.0277 74.1436 48.4609 74.3691C48.8942 74.5911 49.2362 74.9277 49.4868 75.3789C49.7339 75.8301 49.8574 76.3958 49.8574 77.0762C49.8574 78.0465 49.5942 78.786 49.0679 79.2944C48.5415 79.7993 47.8379 80.0518 46.957 80.0518H41.8975V79.1333H46.9839C47.6499 79.1333 48.1637 78.9578 48.5254 78.6069C48.887 78.2524 49.0679 77.7243 49.0679 77.0225C49.0679 76.5426 48.9819 76.1506 48.8101 75.8462C48.6346 75.5382 48.3911 75.3109 48.0796 75.1641C47.7645 75.0137 47.401 74.9385 46.9893 74.9385H41.8975V74.0308ZM41.8975 66.8252C41.8975 66.1807 41.978 65.6489 42.1392 65.23C42.2967 64.8075 42.5384 64.4924 42.8643 64.2847C43.1901 64.077 43.6055 63.9731 44.1104 63.9731C44.5257 63.9731 44.873 64.0483 45.1523 64.1987C45.4281 64.3491 45.6519 64.5461 45.8237 64.7896C45.9956 65.033 46.1281 65.2926 46.2212 65.5684L49.75 63.4146V64.478L46.4736 66.4009V68.0337H49.75V68.9468H41.8975V66.8252ZM42.687 66.8789V68.0337H45.7002V66.7876C45.7002 66.1466 45.5695 65.6758 45.3081 65.375C45.0467 65.0706 44.6618 64.9185 44.1533 64.9185C43.6198 64.9185 43.242 65.0796 43.02 65.4019C42.798 65.7205 42.687 66.2129 42.687 66.8789ZM49.75 54.7856V59.1577H41.8975V54.7856H42.7031V58.2446H45.2437V54.9844H46.0386V58.2446H48.9443V54.7856H49.75ZM45.7485 43.8096C46.633 43.8096 47.3724 43.9707 47.9668 44.293C48.5576 44.6152 49.0034 45.0825 49.3042 45.6948C49.6014 46.3035 49.75 47.043 49.75 47.9131V50.0454H41.8975V47.6768C41.8975 46.8783 42.0443 46.1908 42.3379 45.6143C42.6279 45.0378 43.0594 44.5938 43.6323 44.2822C44.2017 43.9671 44.9071 43.8096 45.7485 43.8096ZM45.7808 44.771C45.0754 44.771 44.4935 44.8892 44.0352 45.1255C43.5768 45.3582 43.2367 45.702 43.0146 46.1567C42.7891 46.6079 42.6763 47.1611 42.6763 47.8164V49.1323H48.9658V48.0205C48.9658 46.9391 48.6991 46.1281 48.1655 45.5874C47.632 45.0431 46.8371 44.771 45.7808 44.771Z" fill="#6E7488"/>
</svg>
